<?xml version="1.0" encoding="UTF-8"?>
<svg width="800" height="600" viewBox="0 0 800 600" fill="none" xmlns="http://www.w3.org/2000/svg">
    <!-- Background Circle -->
    <circle cx="400" cy="300" r="250" fill="#FF6B6B" fill-opacity="0.1"/>
    
    <!-- Yoga Person -->
    <path d="M400 200C400 200 380 250 380 300C380 350 400 400 400 400" stroke="#FF6B6B" stroke-width="8" stroke-linecap="round"/>
    <circle cx="400" cy="180" r="30" fill="#FF6B6B"/>
    
    <!-- Arms -->
    <path d="M400 200C400 200 350 220 320 240" stroke="#FF6B6B" stroke-width="8" stroke-linecap="round"/>
    <path d="M400 200C400 200 450 220 480 240" stroke="#FF6B6B" stroke-width="8" stroke-linecap="round"/>
    
    <!-- Legs -->
    <path d="M400 400C400 400 380 450 360 480" stroke="#FF6B6B" stroke-width="8" stroke-linecap="round"/>
    <path d="M400 400C400 400 420 450 440 480" stroke="#FF6B6B" stroke-width="8" stroke-linecap="round"/>
    
    <!-- Decorative Elements -->
    <circle cx="200" cy="200" r="20" fill="#4ECDC4" fill-opacity="0.3"/>
    <circle cx="600" cy="400" r="25" fill="#4ECDC4" fill-opacity="0.3"/>
    <circle cx="300" cy="450" r="15" fill="#FFE66D" fill-opacity="0.3"/>
    <circle cx="500" cy="150" r="18" fill="#FFE66D" fill-opacity="0.3"/>
    
    <!-- 404 Text -->
    <text x="400" y="520" font-family="Poppins, sans-serif" font-size="48" font-weight="bold" fill="#FF6B6B" text-anchor="middle">404</text>
</svg> 